<svg width="16" height="16" viewBox="0 0 16 16" fill="none" xmlns="http://www.w3.org/2000/svg">
<path d="M6.5 0C6.77614 0 7 0.223858 7 0.5V1.5C7 1.77614 6.77614 2 6.5 2C6.22386 2 6 1.77614 6 1.5V0.5C6 0.223858 6.22386 0 6.5 0Z" fill="white"/>
<path fill-rule="evenodd" clip-rule="evenodd" d="M6 4.49965C6 4.05366 6.54084 3.83031 6.85714 4.14567L12.8519 10.1225C13.1682 10.4379 12.9442 11 12.4969 11H10.8366L11.8967 13.5378C12.0021 13.7923 11.8816 14.0838 11.627 14.1904L9.79086 14.9589C9.53415 15.0663 9.23876 14.945 9.13245 14.6885L8.0027 11.9622L6.85108 13.0721C6.5324 13.3792 6 13.154 6 12.7121V4.49965ZM8.34291 10.3096L9.83632 13.9069L10.8366 13.4883L9.39948 10H11.4028L7 5.59048V11.6469L8.34291 10.3096Z" fill="white"/>
<path d="M2 4.5C2 4.22386 2.22386 4 2.5 4H3.5C3.77614 4 4 4.22386 4 4.5C4 4.77614 3.77614 5 3.5 5H2.5C2.22386 5 2 4.77614 2 4.5Z" fill="white"/>
<path d="M9.5 4C9.22386 4 9 4.22386 9 4.5C9 4.77614 9.22386 5 9.5 5H10.5C10.7761 5 11 4.77614 11 4.5C11 4.22386 10.7761 4 10.5 4H9.5Z" fill="white"/>
<path d="M3.93169 1.24125C3.73643 1.04599 3.41985 1.04599 3.22459 1.24125C3.02932 1.43651 3.02932 1.75309 3.22459 1.94836L3.93301 2.65678C4.12827 2.85204 4.44485 2.85204 4.64011 2.65678C4.83538 2.46151 4.83538 2.14493 4.64011 1.94967L3.93169 1.24125Z" fill="white"/>
<path d="M4.64016 6.34306C4.83542 6.53832 4.83542 6.8549 4.64016 7.05016L3.93174 7.75858C3.73648 7.95385 3.41989 7.95385 3.22463 7.75858C3.02937 7.56332 3.02937 7.24674 3.22463 7.05148L3.93305 6.34306C4.12832 6.14779 4.4449 6.14779 4.64016 6.34306Z" fill="white"/>
<path d="M9.77554 1.94836C9.9708 1.75309 9.9708 1.43651 9.77554 1.24125C9.58027 1.04599 9.26369 1.04599 9.06843 1.24125L8.36001 1.94967C8.16475 2.14493 8.16475 2.46151 8.36001 2.65678C8.55527 2.85204 8.87185 2.85204 9.06712 2.65678L9.77554 1.94836Z" fill="white"/>
</svg>
