<svg width="20" height="20" viewBox="0 0 20 20" fill="none" xmlns="http://www.w3.org/2000/svg">
<path d="M8.5 1C8.77614 1 9 1.22386 9 1.5V2.5C9 2.77614 8.77614 3 8.5 3C8.22386 3 8 2.77614 8 2.5V1.5C8 1.22386 8.22386 1 8.5 1Z" fill="white"/>
<path fill-rule="evenodd" clip-rule="evenodd" d="M8 5.49965C8 5.05366 8.54084 4.83031 8.85714 5.14567L14.8519 11.1225C15.1682 11.4379 14.9442 12 14.4969 12H12.8366L13.8967 14.5378C14.0021 14.7923 13.8816 15.0838 13.627 15.1904L11.7909 15.9589C11.5342 16.0663 11.2388 15.945 11.1325 15.6885L10.0027 12.9622L8.85108 14.0721C8.5324 14.3792 8 14.154 8 13.7121V5.49965ZM10.3429 11.3096L11.8363 14.9069L12.8366 14.4883L11.3995 11H13.4028L9 6.59048V12.6469L10.3429 11.3096Z" fill="white"/>
<path d="M4 5.5C4 5.22386 4.22386 5 4.5 5H5.5C5.77614 5 6 5.22386 6 5.5C6 5.77614 5.77614 6 5.5 6H4.5C4.22386 6 4 5.77614 4 5.5Z" fill="white"/>
<path d="M11.5 5C11.2239 5 11 5.22386 11 5.5C11 5.77614 11.2239 6 11.5 6H12.5C12.7761 6 13 5.77614 13 5.5C13 5.22386 12.7761 5 12.5 5H11.5Z" fill="white"/>
<path d="M5.93169 2.24125C5.73643 2.04599 5.41985 2.04599 5.22459 2.24125C5.02932 2.43651 5.02932 2.75309 5.22459 2.94836L5.93301 3.65678C6.12827 3.85204 6.44485 3.85204 6.64011 3.65678C6.83538 3.46151 6.83538 3.14493 6.64011 2.94967L5.93169 2.24125Z" fill="white"/>
<path d="M6.64016 7.34306C6.83542 7.53832 6.83542 7.8549 6.64016 8.05016L5.93174 8.75858C5.73648 8.95385 5.41989 8.95385 5.22463 8.75858C5.02937 8.56332 5.02937 8.24674 5.22463 8.05148L5.93305 7.34306C6.12832 7.14779 6.4449 7.14779 6.64016 7.34306Z" fill="white"/>
<path d="M11.7755 2.94836C11.9708 2.75309 11.9708 2.43651 11.7755 2.24125C11.5803 2.04599 11.2637 2.04599 11.0684 2.24125L10.36 2.94967C10.1647 3.14493 10.1647 3.46151 10.36 3.65678C10.5553 3.85204 10.8719 3.85204 11.0671 3.65678L11.7755 2.94836Z" fill="white"/>
</svg>
