<svg width="16" height="16" viewBox="0 0 16 16" fill="none" xmlns="http://www.w3.org/2000/svg">
<path fill-rule="evenodd" clip-rule="evenodd" d="M8 13C10.3253 13 12.2799 11.4126 12.8393 9.26235L13.8055 9.52124C13.132 12.0983 10.7881 14 8 14C4.68629 14 2 11.3137 2 8C2 4.68629 4.68629 2 8 2C10.4781 2 12.6053 3.50231 13.5206 5.64585L13.9864 3.36069L14.9523 3.6195L13.9171 7.48321L10.0533 6.44793L10.3122 5.48201L12.6787 6.23274C11.9647 4.34348 10.1393 3 8 3C5.23858 3 3 5.23858 3 8C3 10.7614 5.23858 13 8 13Z" fill="white"/>
</svg>
